<svg width="231" height="253" viewBox="0 0 231 253" fill="none" xmlns="http://www.w3.org/2000/svg">
<path d="M199.813 37.9453H61.2131C54.8342 37.9453 49.6631 43.6089 49.6631 50.5953V202.395C49.6631 209.382 54.8342 215.045 61.2131 215.045H199.813C206.192 215.045 211.363 209.382 211.363 202.395V50.5953C211.363 43.6089 206.192 37.9453 199.813 37.9453Z" fill="#F72586"/>
<g filter="url(#filter0_d_228_1180)">
<path d="M25.4068 132.808H181.332C182.863 132.808 184.332 133.475 185.415 134.661C186.498 135.847 187.107 137.456 187.107 139.133V170.758C187.107 172.436 186.498 174.045 185.415 175.231C184.332 176.417 182.863 177.083 181.332 177.083H25.4068C23.8752 177.083 22.4063 176.417 21.3233 175.231C20.2403 174.045 19.6318 172.436 19.6318 170.758V139.133C19.6318 137.456 20.2403 135.847 21.3233 134.661C22.4063 133.475 23.8752 132.808 25.4068 132.808V132.808Z" fill="white"/>
</g>
<path opacity="0.3" d="M110.877 142.927H80.8468C78.9332 142.927 77.3818 144.627 77.3818 146.722C77.3818 148.818 78.9332 150.517 80.8468 150.517H110.877C112.791 150.517 114.342 148.818 114.342 146.722C114.342 144.627 112.791 142.927 110.877 142.927Z" fill="#F72586"/>
<path opacity="0.15" d="M131.667 159.371H80.8468C78.9332 159.371 77.3818 161.07 77.3818 163.166C77.3818 165.262 78.9332 166.961 80.8468 166.961H131.667C133.581 166.961 135.132 165.262 135.132 163.166C135.132 161.07 133.581 159.371 131.667 159.371Z" fill="#F72586"/>
<path d="M39.8436 166.955C45.9035 166.955 50.8161 161.575 50.8161 154.937C50.8161 148.3 45.9035 142.92 39.8436 142.92C33.7836 142.92 28.8711 148.3 28.8711 154.937C28.8711 161.575 33.7836 166.955 39.8436 166.955Z" fill="#F72586"/>
<g filter="url(#filter1_d_228_1180)">
<path d="M181.332 75.897H25.4068C22.2174 75.897 19.6318 78.7288 19.6318 82.222V113.847C19.6318 117.34 22.2174 120.172 25.4068 120.172H181.332C184.521 120.172 187.107 117.34 187.107 113.847V82.222C187.107 78.7288 184.521 75.897 181.332 75.897Z" fill="white"/>
</g>
<path opacity="0.3" d="M108.564 86.0161H78.5343C76.6207 86.0161 75.0693 87.7152 75.0693 89.8111C75.0693 91.907 76.6207 93.6061 78.5343 93.6061H108.564C110.478 93.6061 112.029 91.907 112.029 89.8111C112.029 87.7152 110.478 86.0161 108.564 86.0161Z" fill="#F72586"/>
<path opacity="0.15" d="M129.354 102.459H78.5343C76.6207 102.459 75.0693 104.158 75.0693 106.254C75.0693 108.35 76.6207 110.049 78.5343 110.049H129.354C131.268 110.049 132.819 108.35 132.819 106.254C132.819 104.158 131.268 102.459 129.354 102.459Z" fill="#F72586  "/>
<path d="M54.8534 110.054C60.9133 110.054 65.8259 104.673 65.8259 98.0361C65.8259 91.399 60.9133 86.0186 54.8534 86.0186C48.7934 86.0186 43.8809 91.399 43.8809 98.0361C43.8809 104.673 48.7934 110.054 54.8534 110.054Z" fill="#F72586"/>
<defs>
<filter id="filter0_d_228_1180" x="14.7718" y="130.378" width="177.195" height="53.9949" filterUnits="userSpaceOnUse" color-interpolation-filters="sRGB">
<feFlood flood-opacity="0" result="BackgroundImageFix"/>
<feColorMatrix in="SourceAlpha" type="matrix" values="0 0 0 0 0 0 0 0 0 0 0 0 0 0 0 0 0 0 127 0" result="hardAlpha"/>
<feOffset dy="2.43"/>
<feGaussianBlur stdDeviation="2.43"/>
<feColorMatrix type="matrix" values="0 0 0 0 0 0 0 0 0 0 0 0 0 0 0 0 0 0 0.161 0"/>
<feBlend mode="normal" in2="BackgroundImageFix" result="effect1_dropShadow_228_1180"/>
<feBlend mode="normal" in="SourceGraphic" in2="effect1_dropShadow_228_1180" result="shape"/>
</filter>
<filter id="filter1_d_228_1180" x="14.7718" y="73.467" width="177.195" height="53.9949" filterUnits="userSpaceOnUse" color-interpolation-filters="sRGB">
<feFlood flood-opacity="0" result="BackgroundImageFix"/>
<feColorMatrix in="SourceAlpha" type="matrix" values="0 0 0 0 0 0 0 0 0 0 0 0 0 0 0 0 0 0 127 0" result="hardAlpha"/>
<feOffset dy="2.43"/>
<feGaussianBlur stdDeviation="2.43"/>
<feColorMatrix type="matrix" values="0 0 0 0 0 0 0 0 0 0 0 0 0 0 0 0 0 0 0.161 0"/>
<feBlend mode="normal" in2="BackgroundImageFix" result="effect1_dropShadow_228_1180"/>
<feBlend mode="normal" in="SourceGraphic" in2="effect1_dropShadow_228_1180" result="shape"/>
</filter>
</defs>
</svg>
